<svg xmlns="http://www.w3.org/2000/svg" xmlns:xlink="http://www.w3.org/1999/xlink" width="166.046" height="552.143" viewBox="0 0 166.046 552.143">
  <defs>
    <clipPath id="clip-path">
      <rect width="148.158" height="509.205" fill="none"/>
    </clipPath>
  </defs>
  <g id="Group_76388" data-name="Group 76388" transform="translate(-1842.982 -6603.306)">
    <g id="Ornamen_1" data-name="Ornamen 1" transform="translate(1237.633 5019.332)">
      <g id="Repeat_Grid_1" data-name="Repeat Grid 1" transform="translate(623.236 1626.912)" clip-path="url(#clip-path)">
        <g transform="translate(-623.236 -1626.912)">
          <path id="Vector_1" data-name="Vector 1" d="M765.693,2121.712c-53.687,2.915-152.68-17.564-119.156-122.8,16.155-30.244,50.8-105.674,60.124-165.434,16.4-54.537,21.572-174.835-88.912-219.728" transform="translate(5.675 13.625)" fill="none" stroke="#404040" stroke-width="1" stroke-dasharray="10 10" opacity="0.502"/>
        </g>
      </g>
      <g id="bx:bx-paper-plane" transform="translate(605.349 1583.974)">
        <path id="Vector" d="M17.4,33.959l0,0-6.921-7.5L2.016,29.382a1.51,1.51,0,0,1-.5.083,1.539,1.539,0,0,1-.36-.043A1.518,1.518,0,0,1,.112,27.376L10.842.946a1.524,1.524,0,0,1,1.186-.93A1.569,1.569,0,0,1,12.248,0a1.522,1.522,0,0,1,1.184.563L27.763,18.33a1.517,1.517,0,0,1,.307.652,1.543,1.543,0,0,1-.029.72,1.506,1.506,0,0,1-.358.625,1.527,1.527,0,0,1-.606.391L19.615,23.3,17.4,33.956ZM12.688,4.476l-8.5,20.946,4.593-1.587,4.158-12.618,2.852,10.191,8.254-2.852L12.688,4.476Z" fill="#0050a3"/>
      </g>
    </g>
  </g>
</svg>
