<svg xmlns="http://www.w3.org/2000/svg" xmlns:xlink="http://www.w3.org/1999/xlink" width="325.658" height="109.474" viewBox="0 0 325.658 109.474">
  <defs>
    <linearGradient id="linear-gradient" x1="0.5" x2="0.5" y2="1" gradientUnits="objectBoundingBox">
      <stop offset="0" stop-color="#0064bc"/>
      <stop offset="1" stop-color="#003d8c"/>
    </linearGradient>
    <linearGradient id="linear-gradient-2" y1="0.5" x2="1" y2="0.5" gradientUnits="objectBoundingBox">
      <stop offset="0" stop-color="#057d8b"/>
      <stop offset="1" stop-color="#14cadf"/>
    </linearGradient>
    <linearGradient id="linear-gradient-4" x1="0" y1="0.5" x2="1" y2="0.5" xlink:href="#linear-gradient"/>
    <linearGradient id="linear-gradient-5" x1="0" y1="0.5" x2="1" y2="0.5" xlink:href="#linear-gradient"/>
    <linearGradient id="linear-gradient-7" x1="0" y1="0.5" x2="1" y2="0.5" xlink:href="#linear-gradient"/>
  </defs>
  <g id="Layer_2" data-name="Layer 2" transform="translate(1268.107 -152.57)">
    <g id="Layer_1" data-name="Layer 1" transform="translate(-1267.107 152.57)">
      <text id="JUNGLE_HOUSE" data-name="JUNGLE HOUSE" transform="translate(0 62.839)" fill="#078998" stroke="#078998" stroke-width="1" font-size="21" font-family="SegoeUI-Bold, Segoe UI" font-weight="700" letter-spacing="0.18em"><tspan x="0" y="0">JUNGLE HOUSE</tspan></text>
      <g id="Group_1" data-name="Group 1" transform="translate(214.682 0)">
        <g id="_1" data-name="1" transform="translate(0)">
          <path id="Path_1" data-name="Path 1" d="M393.176,55.043l-55-43.366L283.2,55.043l14.51-14.524,16.459-16.474V7.752h7.122v9.16L338.185,0l40.478,40.519Z" transform="translate(-283.2)" fill="url(#linear-gradient)"/>
        </g>
        <path id="Path_2" data-name="Path 2" d="M366.791,632.495q-.255-.258-.5-.52l-.011-.012q-.507-.529-1-1.074l-.039-.042q-.485-.543-.957-1.1l-.028-.033q-.227-.269-.449-.54l-.02-.025q-.461-.56-.9-1.137l-.046-.059q-.438-.571-.86-1.156l-.039-.054q-.2-.277-.391-.554l-.03-.043q-.41-.588-.8-1.191c-.017-.026-.034-.053-.052-.079q-.389-.6-.759-1.206c-.017-.026-.032-.053-.048-.078-.112-.185-.223-.369-.333-.554l-.037-.063q-.185-.313-.362-.629l-.011-.019c-.111-.2-.221-.393-.329-.59-.018-.035-.038-.069-.056-.1q-.337-.62-.657-1.251c-.017-.034-.034-.068-.052-.1q-.139-.277-.277-.558l-.041-.085q-.155-.32-.306-.646c-.008-.017-.016-.034-.024-.052q-.136-.291-.267-.583c-.019-.042-.038-.084-.056-.126q-.285-.639-.554-1.292l-.052-.127q-.114-.277-.223-.554l-.042-.106q-.127-.327-.251-.658l-.03-.081q-.107-.288-.21-.577c-.018-.05-.036-.1-.053-.149q-.233-.657-.446-1.322c-.017-.051-.032-.1-.048-.151q-.092-.277-.173-.554l-.039-.127q-.1-.335-.2-.671l-.03-.108q-.08-.285-.158-.571l-.044-.167c-.059-.223-.117-.446-.173-.67h0q-.085-.34-.164-.683c-.013-.056-.026-.112-.04-.169q-.064-.277-.125-.554c-.01-.047-.021-.092-.031-.142-.049-.227-.092-.454-.141-.683-.009-.044-.018-.087-.026-.13q-.055-.283-.108-.568l-.033-.185c-.042-.225-.08-.452-.118-.679a.035.035,0,0,1,0-.01q-.056-.347-.109-.695l-.028-.185c-.027-.185-.054-.375-.078-.563-.007-.051-.014-.1-.021-.152-.03-.232-.059-.461-.086-.7l-.017-.147q-.032-.285-.061-.57l-.019-.194q-.033-.348-.063-.7v-.009c-.019-.236-.036-.473-.053-.709,0-.065-.008-.13-.012-.2q-.018-.285-.033-.57l-.008-.16c-.011-.235-.021-.471-.029-.709v-.158c-.006-.192-.011-.383-.015-.575v-.2c0-.24-.006-.48-.006-.72q0-1.908.147-3.778h0c.019-.244.04-.485.062-.727V594.1c.024-.248.048-.5.075-.738.281.031.563.064.843.1l.206.026A54,54,0,0,1,401.4,646.966q-.4,0-.795-.006v-.277q0-2.19-.179-4.338a44.763,44.763,0,0,0-39.764-40.669,39.96,39.96,0,0,0,15.063,35.791l.129.1c.1.078.2.155.3.232l.166.126.269.2a40.118,40.118,0,0,0,5.516,3.445,51.678,51.678,0,0,0,13.073,4.989,48.312,48.312,0,0,1-19.6-7.014h0q-.318-.2-.632-.4h0q-.626-.405-1.237-.831l-.025-.018q-.612-.426-1.21-.868h0q-.3-.222-.6-.451h0q-.59-.451-1.165-.923l-.027-.021q-.574-.468-1.133-.954l-.007-.006c-.185-.161-.369-.326-.554-.491h0q-.554-.493-1.085-1l-.03-.029q-.532-.509-1.049-1.031Z" transform="translate(-346.468 -538.6)" fill-rule="evenodd" fill="url(#linear-gradient-2)"/>
        <path id="Path_3" data-name="Path 3" d="M905.3,644.495q.255-.257.5-.519l.011-.012q.507-.529,1-1.074l.039-.042q.486-.542.957-1.1l.028-.033q.227-.269.449-.54l.02-.025q.462-.56.9-1.137l.046-.059q.439-.571.86-1.156l.039-.054q.2-.277.391-.554l.029-.042q.41-.588.8-1.192c.018-.026.034-.053.052-.079q.389-.6.759-1.206c.017-.026.032-.052.048-.078.112-.185.223-.369.333-.554l.037-.063q.184-.313.362-.628l.011-.019c.111-.2.221-.393.329-.59.018-.035.038-.069.056-.1q.337-.62.657-1.25c.017-.034.034-.068.052-.1q.139-.277.277-.558l.042-.085q.155-.32.306-.646c.008-.017.016-.034.024-.052q.136-.291.267-.583c.018-.042.038-.084.056-.126q.285-.639.554-1.292l.052-.127q.114-.277.223-.554l.042-.106q.127-.328.251-.658l.03-.081q.106-.288.21-.577c.018-.05.036-.1.054-.149q.232-.657.446-1.322c.017-.051.032-.1.048-.151q.092-.277.173-.554l.039-.127q.1-.335.2-.671l.03-.108q.08-.285.158-.571l.044-.167c.059-.223.117-.446.173-.67h0q.085-.341.164-.683c.013-.056.026-.113.04-.169q.064-.277.125-.554c.01-.047.021-.092.031-.142.049-.227.092-.454.141-.683.009-.043.017-.087.026-.13q.055-.283.108-.569l.033-.184c.041-.225.08-.452.118-.679v-.01q.057-.347.109-.7l.028-.185c.027-.184.054-.375.078-.563.007-.051.014-.1.021-.152q.044-.347.086-.7c.006-.049.01-.1.016-.147q.033-.285.062-.57l.019-.194q.033-.348.063-.7v-.009c.019-.236.036-.473.053-.709,0-.065.008-.13.012-.2q.018-.285.033-.57l.008-.16c.011-.235.021-.472.029-.709v-.158c.007-.192.011-.383.015-.575v-.2c0-.24.005-.48.005-.72q0-1.908-.147-3.778h0c-.019-.244-.04-.485-.062-.727V606.1c-.024-.248-.048-.5-.075-.738q-.424.045-.842.1l-.206.026a54,54,0,0,0-47.167,53.482q.4,0,.795-.007v-.277q0-2.19.179-4.338a44.731,44.731,0,0,1,39.758-40.654,39.96,39.96,0,0,1-15.063,35.791c-.042.033-.087.066-.129.1-.1.078-.2.155-.3.232l-.166.126-.269.2a40.172,40.172,0,0,1-5.516,3.445,51.684,51.684,0,0,1-13.07,4.989,48.312,48.312,0,0,0,19.6-7.014h0q.318-.2.632-.4h0q.626-.405,1.237-.831l.025-.018q.612-.426,1.21-.868h0q.3-.223.6-.451h0q.59-.451,1.165-.923l.027-.021q.574-.468,1.133-.954l.006-.005c.185-.161.369-.326.554-.491h0q.554-.493,1.085-1l.031-.029q.532-.509,1.049-1.031Z" transform="translate(-816.472 -549.493)" fill-rule="evenodd" fill="url(#linear-gradient-2)"/>
        <path id="_1-2" data-name="1" d="M900.528,545.9h-3.76a4.566,4.566,0,0,1,4.553,4.553v2.162h-2.159a4.566,4.566,0,0,1-4.553-4.553v3.753a4.566,4.566,0,0,0,4.553,4.552h5.918v-5.916A4.566,4.566,0,0,0,900.528,545.9Z" transform="translate(-838.184 -495.52)" fill-rule="evenodd" fill="url(#linear-gradient-4)"/>
        <path id="_2" data-name="2" d="M769.789,415.16H763.87v5.919a4.566,4.566,0,0,0,4.553,4.553h3.756a4.566,4.566,0,0,1-4.553-4.553v-2.163h2.162a4.566,4.566,0,0,1,4.553,4.553v-3.756A4.567,4.567,0,0,0,769.789,415.16Z" transform="translate(-719.51 -376.846)" fill-rule="evenodd" fill="url(#linear-gradient-5)"/>
        <path id="_3" data-name="3" d="M769.789,552.615h-2.162v-2.162a4.566,4.566,0,0,1,4.553-4.552h-3.756a4.566,4.566,0,0,0-4.553,4.552v5.918h5.918a4.566,4.566,0,0,0,4.553-4.555v-3.756A4.566,4.566,0,0,1,769.789,552.615Z" transform="translate(-719.51 -495.52)" fill-rule="evenodd" fill="url(#linear-gradient-5)"/>
        <path id="_4" data-name="4" d="M901.325,415.16h-2.162a4.568,4.568,0,0,0-4.553,4.553v3.756a4.568,4.568,0,0,1,4.553-4.553h2.162v2.163a4.566,4.566,0,0,1-4.556,4.553h3.756a4.566,4.566,0,0,0,4.552-4.553V415.16Z" transform="translate(-838.184 -376.846)" fill-rule="evenodd" fill="url(#linear-gradient-7)"/>
      </g>
    </g>
  </g>
</svg>
